<svg width="209" height="60" fill="none" xmlns="http://www.w3.org/2000/svg"><path d="M184.24 60c-.603-1.839-1.178-3.688-1.825-5.51-.201-.573.111-.645.479-.787 2.803-1.077 5.12-2.763 6.79-5.314a3.155 3.155 0 00.508-2.48c-1.337-7.129-2.642-14.267-3.965-21.396-.237-1.284-.251-1.28 1.009-1.28 1.838 0 3.68.019 5.513-.013.566 0 .732.177.785.744.508 5.294 1.051 10.585 1.577 15.876.017.166-.021.354.175.47.217-.136.23-.386.298-.591 1.786-5.28 3.811-10.47 5.783-15.68.235-.62.539-.839 1.202-.825 2.12.045 4.244.018 6.431.018-.034.172-.08.342-.139.507-3.527 7.41-6.723 14.981-10.514 22.26-1.752 3.366-3.785 6.554-6.411 9.314-2.014 2.115-4.381 3.675-7.185 4.524-.068.021-.117.108-.175.163h-.336zM35.965 58.946V6.87c.407-.046.635.241.877.485.939.923 1.897 1.828 2.803 2.781a1.864 1.864 0 001.53.652c.93-.04 1.866.052 2.804.018.855-.032 1.25.3 1.372 1.176.517 3.748 1.084 7.49 1.633 11.233l2.543 17.327c.665 4.527 1.322 9.054 2.011 13.578.11.728-.02 1.079-.815 1.27-4.642 1.114-9.268 2.294-13.9 3.443-.284.054-.57.09-.858.112zm57.088-10.424c.732-3.918 1.458-7.753 2.16-11.593.35-1.932.842-3.847.808-5.845-.038-2.382-1.74-3.365-3.802-2.162-1.15.67-1.896 1.716-2.529 2.858-1.116 2.016-1.475 4.251-1.896 6.476-.6 3.174-1.204 6.346-1.778 9.524-.102.563-.305.767-.9.755a125.838 125.838 0 00-5.607 0c-.608.012-.74-.177-.63-.753 1.843-9.662 3.676-19.326 5.5-28.992.382-2.02.774-4.037 1.126-6.061.095-.54.304-.725.856-.709 1.869.033 3.738.033 5.607 0 .645-.01.773.161.645.81-.866 4.378-1.686 8.764-2.52 13.15a1.593 1.593 0 000 .276c.333.021.42-.273.58-.44 1.752-1.83 3.817-2.941 6.361-3.149 3.571-.292 6.103 1.872 6.349 5.482.159 2.344-.265 4.625-.701 6.908-.817 4.267-1.614 8.54-2.42 12.81-.056.3 0 .666-.5.662-2.22-.017-4.433-.007-6.71-.007zm74.922 0c.603-3.248 1.188-6.417 1.782-9.586.603-3.2 1.199-6.405 1.835-9.598.131-.664-.065-.826-.68-.783-.615.042-1.284-.009-1.928.016-.45.016-.55-.177-.466-.583.289-1.438.575-2.878.831-4.322.074-.41.266-.531.648-.531.701.018 1.402-.023 2.103.012.517.027.701-.168.778-.682.229-1.57.664-3.103 1.293-4.557 1.881-4.303 5.692-6.648 10.411-6.377.903.027 1.801.16 2.674.397.417.124.589.292.473.74a239.553 239.553 0 00-1.127 4.526c-.1.418-.289.47-.68.4-3.278-.582-5.071.627-5.838 3.915-.381 1.63-.381 1.63 1.244 1.63.902 0 1.806.019 2.711 0 .476-.015.623.155.525.621-.271 1.417-.541 2.825-.779 4.251-.072.432-.249.578-.684.569-1.195-.029-2.392.02-3.587-.023-.541-.02-.764.164-.862.696a5202.152 5202.152 0 01-3.347 17.916 8.166 8.166 0 00-.159.864c-.032.369-.197.502-.561.5-2.177-.01-4.36-.01-6.61-.01zm-100.98.446c-2.744.013-4.866-.416-6.888-1.346-.526-.244-.736-.5-.49-1.12.474-1.2.875-2.426 1.268-3.657.175-.545.35-.67.9-.402a12.838 12.838 0 004.529 1.24c.666.07 1.34.004 1.981-.193 1.753-.574 2.278-2.46 1.103-3.897-.491-.597-1.129-1.011-1.769-1.417-.64-.405-1.337-.837-1.978-1.294-5.344-3.794-3.319-10.017.56-12.4 2.84-1.744 5.927-1.962 9.113-1.632a10.39 10.39 0 012.88.69c.474.194.684.399.472.976-.468 1.263-.864 2.555-1.253 3.846-.142.473-.336.572-.792.39a9.82 9.82 0 00-4.447-.72 3.584 3.584 0 00-1.577.475c-1.227.72-1.458 2.143-.538 3.234.48.569 1.1.955 1.735 1.322a23.275 23.275 0 012.691 1.801c4.656 3.633 2.891 9.675-.492 12.004-1.928 1.328-4.388 2.056-7.008 2.1zm91.233-.446c-.904 0-1.813-.065-2.71.018-.898.083-.754-.395-.649-.946.64-3.344 1.275-6.69 1.903-10.036.861-4.527 1.732-9.053 2.569-13.585.097-.52.237-.762.813-.753 1.924.032 3.849.032 5.774 0 .573-.009.687.177.582.723a7394.344 7394.344 0 00-4.542 23.788c-.109.577-.284.857-.941.807-.927-.069-1.865-.016-2.799-.016zm9.926-32.607c.012 2.453-1.725 4.198-4.181 4.198-2.044 0-3.381-1.392-3.388-3.528 0-2.35 1.753-4.172 4.031-4.19 2.062-.006 3.527 1.44 3.538 3.52z" fill="#181818"/><path fill-rule="evenodd" clip-rule="evenodd" d="M140.029 26.42c-.129.148-.268.308-.424.482.047-.437.089-.847.13-1.238.069-.673.133-1.293.206-1.907.062-.479-.056-.688-.581-.679-1.664.031-3.326.031-4.987 0-.54-.009-.682.206-.74.709-.523 4.598-1.393 9.139-2.263 13.679l-.455 2.386-.325 1.725a3106.855 3106.855 0 01-3.078 16.186c-.152.786.076.928.801.907 1.7-.05 3.396-.082 5.082.01.921.05 1.163-.329 1.302-1.139.314-1.85.656-3.695.998-5.54.199-1.07.398-2.142.591-3.213l.018-.106c.055-.34.098-.602.667-.388 4.046 1.521 7.868.843 11.077-1.906 5.527-4.736 7.275-10.966 6.017-18.033-.494-2.776-2.148-4.852-5.05-5.491-3.291-.723-6.012.45-8.308 2.807-.222.227-.432.468-.678.75zm3.839 15.384c2.2-2.622 3.016-5.766 3.251-9.108a6.494 6.494 0 00-.396-2.423c-.442-1.172-1.344-1.741-2.572-1.704-1.229.037-2.142.696-2.918 1.57-1.237 1.388-1.961 3.055-2.334 4.854a110.464 110.464 0 00-.603 3.234 96.688 96.688 0 01-.678 3.593c-.16.761.116 1.056.701 1.343 1.982.967 3.972.526 5.549-1.36zm-32.195-16.575c-4.439 3.415-6.172 8.158-6.384 12.753-.019 6.172 2.725 9.904 7.437 10.824 3.38.659 6.555-.01 9.442-1.908 6.057-3.989 7.815-12.399 6.501-17.358-.996-3.764-3.41-6.113-7.255-6.731-3.552-.572-6.864.21-9.741 2.42zm8.316 15.022a17.846 17.846 0 001.81-7.24c.011-.942-.008-1.734-.249-2.506-.639-2.115-2.731-2.986-4.68-1.948a5.143 5.143 0 00-1.735 1.583c-1.281 1.773-1.945 3.801-2.332 5.927-.302 1.658-.484 3.326.012 4.977.771 2.58 3.468 3.33 5.469 1.534a7.62 7.62 0 001.705-2.327z" fill="#181818"/><path fill-rule="evenodd" clip-rule="evenodd" d="M33.139 58.476h-.003v-.001h-.001c-2.019-.335-4.037-.67-6.052-1.019-3.156-.546-6.31-1.095-9.465-1.644h-.003c-5.52-.962-11.039-1.922-16.565-2.867-.837-.143-1.153-.335-1.021-1.321 1.04-7.785 2.037-15.576 3.034-23.366l.646-5.047c.071-.553.145-1.106.218-1.66.174-1.311.348-2.623.5-3.937.098-.843.526-1.316 1.318-1.555.766-.233 1.532-.473 2.3-.715.987-.31 1.976-.62 2.97-.915.597-.177.875-.483 1.02-1.126 1.027-4.38 2.859-8.325 6.309-11.336C19.676.805 21.221.073 23.021.007a4.563 4.563 0 011.848.277 4.601 4.601 0 011.588.995c.261.248.512.452.906.452 2.327 0 3.866 1.274 4.98 3.188.337.551.61 1.139.815 1.752.202.66.535.732 1.1.517l.03-.011c.555-.21 1.078-.408 1.672-.3a1.2 1.2 0 01.41.935c.02.354.025.708.025 1.063 0 16.03-.003 32.06-.01 48.089.002.125.009.252.016.38.031.563.063 1.146-.436 1.602-.94-.158-1.882-.314-2.824-.47h-.002zm-8.51-56.082c-2.576 1.643-4.02 4.116-5.043 6.892l-.074.195c-.155.404-.314.816-.352 1.234-.098 1.063-.7 1.48-1.664 1.697-.762.17-1.507.423-2.25.676-.197.067-.394.134-.59.199-.513.177-.747.069-.577-.507 1.109-3.755 2.774-7.172 5.901-9.67 1.01-.807 2.161-1.276 3.482-1.177l.02.002c.395.03.8.06 1.147.459zm.996 7.464c1.32-.413 1.32-.415 1.267-1.82a11.629 11.629 0 00-.523-3.205c-.303-.984-.43-1.035-1.235-.452-2.166 1.575-3.231 3.875-4.03 6.34-.188.564.163.493.513.387l4.008-1.25zm2.525-5.72c-.053-.484.232-.366.476-.266l.01.004c.932.383 1.557 1.1 2.062 1.948 1.193 2.002.978 2.464-1.318 2.868-.298.051-.543.074-.559-.308a16.596 16.596 0 00-.67-4.246zM10.21 46.333a11.687 11.687 0 007.258 2.427c1.749.01 2.947-.229 4.17-.831 3.396-1.68 5.222-5.82 4.448-9.98-.487-2.615-2.075-4.406-4.15-5.867a34.08 34.08 0 00-1.188-.791c-.78-.504-1.56-1.007-2.255-1.63-1.396-1.25-1.155-3.22.51-4.075a4.545 4.545 0 011.239-.414 8.895 8.895 0 014.568.409c.55.191.775.08.917-.494.434-1.77.902-3.53 1.402-5.282.19-.675-.011-.965-.665-1.123-1.703-.41-3.408-.365-5.129-.152-4.86.602-8.51 3.755-9.573 8.303-.932 3.993.148 6.922 3.431 9.33a55.516 55.516 0 012.026 1.539 3.842 3.842 0 011.304 1.84c.54 1.713-.498 3.174-2.278 3.188a5.39 5.39 0 01-1.384-.177 10.879 10.879 0 01-3.33-1.54c-.59-.394-.874-.424-1.023.385a38.368 38.368 0 01-.824 3.518c-.175.664.023 1.036.526 1.417z" fill="#444"/></svg>