<svg width="194" height="57" fill="none" xmlns="http://www.w3.org/2000/svg"><path d="M194 51.286c0 3.157-2.497 5.714-5.586 5.714H5.594C2.506 57 0 54.443 0 51.286V5.721C0 2.566 2.506 0 5.594 0h182.818c3.091 0 5.587 2.566 5.587 5.721L194 51.286z" fill="#242424"/><path d="M42.692 26.696c-.043-4.521 3.834-6.721 4.012-6.824-2.196-3.09-5.6-3.512-6.795-3.546-2.859-.29-5.631 1.651-7.087 1.651-1.486 0-3.728-1.623-6.145-1.575-3.11.046-6.019 1.784-7.614 4.483-3.293 5.504-.837 13.592 2.318 18.04 1.578 2.18 3.422 4.612 5.836 4.527 2.361-.094 3.243-1.454 6.093-1.454 2.823 0 3.652 1.454 6.113 1.399 2.535-.04 4.13-2.189 5.653-4.387 1.824-2.497 2.556-4.957 2.585-5.083-.06-.02-4.922-1.811-4.97-7.23zM38.041 13.4c1.27-1.534 2.14-3.62 1.898-5.737-1.838.078-4.137 1.227-5.46 2.727-1.172 1.322-2.218 3.488-1.948 5.525 2.065.149 4.185-1.006 5.51-2.516zm38.825 29.739h-3.3l-1.808-5.484h-6.283l-1.722 5.484H60.54l6.225-18.67h3.845l6.256 18.67zm-5.653-7.785l-1.635-4.875c-.173-.498-.497-1.671-.975-3.517h-.058c-.19.794-.497 1.966-.918 3.517l-1.606 4.875h5.192zm21.663.889c0 2.29-.641 4.1-1.923 5.428-1.148 1.182-2.574 1.773-4.275 1.773-1.837 0-3.156-.637-3.96-1.91h-.058v7.091h-3.098V34.109c0-1.44-.04-2.917-.115-4.432h2.724l.173 2.134h.059c1.033-1.608 2.6-2.41 4.705-2.41 1.645 0 3.018.627 4.117 1.882 1.101 1.257 1.65 2.91 1.65 4.96zm-3.157.11c0-1.311-.305-2.392-.918-3.242-.67-.886-1.57-1.33-2.697-1.33a3.29 3.29 0 00-2.08.734 3.387 3.387 0 00-1.219 1.926c-.096.37-.144.674-.144.912v2.245c0 .98.311 1.806.933 2.48.622.675 1.43 1.012 2.424 1.012 1.167 0 2.075-.435 2.725-1.302.65-.868.976-2.013.976-3.436zm19.196-.11c0 2.29-.641 4.1-1.924 5.428-1.147 1.182-2.572 1.773-4.274 1.773-1.837 0-3.156-.637-3.959-1.91H98.7v7.091h-3.098V34.109a89 89 0 00-.115-4.432h2.725l.173 2.134h.058c1.032-1.608 2.6-2.41 4.705-2.41 1.644 0 3.017.627 4.119 1.882 1.097 1.257 1.648 2.91 1.648 4.96zm-3.157.11c0-1.311-.306-2.392-.919-3.242-.67-.886-1.567-1.33-2.696-1.33-.766 0-1.459.247-2.081.734a3.385 3.385 0 00-1.218 1.926c-.094.37-.144.674-.144.912v2.245c0 .98.311 1.806.93 2.48.622.674 1.43 1.012 2.427 1.012 1.167 0 2.075-.435 2.725-1.302.651-.868.976-2.013.976-3.436zm21.089 1.551c0 1.588-.571 2.88-1.718 3.877-1.26 1.09-3.014 1.635-5.268 1.635-2.081 0-3.749-.388-5.012-1.163l.718-2.493c1.36.794 2.853 1.192 4.479 1.192 1.167 0 2.075-.255 2.728-.763.649-.508.973-1.19.973-2.04 0-.758-.267-1.396-.803-1.914-.534-.517-1.425-.998-2.668-1.443-3.386-1.22-5.078-3.005-5.078-5.354 0-1.535.593-2.793 1.78-3.772 1.183-.981 2.761-1.47 4.735-1.47 1.76 0 3.221.295 4.388.886l-.774 2.438c-1.09-.572-2.322-.858-3.701-.858-1.09 0-1.942.26-2.552.776-.516.461-.775 1.024-.775 1.69 0 .738.295 1.348.888 1.828.516.443 1.453.923 2.813 1.44 1.664.648 2.887 1.404 3.673 2.27.783.865 1.174 1.947 1.174 3.238zm10.244-5.983h-3.415v6.537c0 1.662.601 2.492 1.807 2.492.554 0 1.013-.046 1.376-.138l.086 2.271c-.61.22-1.414.331-2.409.331-1.224 0-2.18-.36-2.87-1.08-.688-.721-1.033-1.93-1.033-3.63v-6.786h-2.035v-2.244h2.035v-2.465l3.043-.887v3.352h3.415v2.247zm15.407 4.376c0 2.07-.613 3.768-1.837 5.097-1.283 1.368-2.986 2.05-5.109 2.05-2.046 0-3.675-.656-4.89-1.966-1.215-1.31-1.822-2.964-1.822-4.958 0-2.086.625-3.795 1.879-5.124 1.251-1.33 2.94-1.995 5.063-1.995 2.046 0 3.692.656 4.935 1.967 1.188 1.273 1.781 2.916 1.781 4.929zm-3.214.097c0-1.242-.275-2.307-.831-3.195-.65-1.074-1.579-1.61-2.782-1.61-1.245 0-2.191.537-2.841 1.61-.556.89-.831 1.971-.831 3.25 0 1.242.275 2.307.831 3.194.67 1.075 1.606 1.61 2.814 1.61 1.183 0 2.111-.547 2.781-1.638.571-.905.859-1.981.859-3.221zm13.285-4.087a5.573 5.573 0 00-.976-.082c-1.09 0-1.933.397-2.526 1.192-.516.702-.775 1.588-.775 2.659v7.063h-3.096l.029-9.222c0-1.552-.04-2.965-.117-4.239h2.699l.113 2.576h.086c.327-.885.843-1.598 1.549-2.132a3.83 3.83 0 012.24-.721c.286 0 .544.02.774.054v2.852zm13.856 3.464c0 .536-.036.988-.113 1.357h-9.295c.036 1.33.485 2.347 1.349 3.048.783.627 1.796.942 3.04.942 1.376 0 2.631-.212 3.761-.637l.485 2.076c-1.32.556-2.877.832-4.675.832-2.162 0-3.86-.614-5.095-1.842-1.232-1.228-1.85-2.876-1.85-4.944 0-2.03.574-3.72 1.724-5.069 1.203-1.44 2.829-2.159 4.875-2.159 2.01 0 3.531.72 4.565 2.16.818 1.143 1.229 2.557 1.229 4.236zm-2.954-.776c.02-.886-.182-1.652-.602-2.3-.536-.831-1.36-1.247-2.469-1.247-1.013 0-1.837.406-2.466 1.22-.516.647-.822 1.422-.917 2.326h6.454v.001zM70.189 12.982c0 1.652-.513 2.895-1.538 3.73-.949.77-2.297 1.156-4.044 1.156-.866 0-1.607-.037-2.228-.11V8.736a17.06 17.06 0 012.623-.191c1.664 0 2.918.35 3.764 1.048.948.79 1.423 1.92 1.423 3.39zm-1.606.041c0-1.07-.293-1.89-.88-2.463-.588-.571-1.445-.858-2.574-.858-.48 0-.888.031-1.227.096v6.859c.188.028.53.04 1.03.04 1.165 0 2.064-.312 2.698-.938.633-.626.953-1.538.953-2.736zm10.12 1.402c0 1.017-.3 1.85-.902 2.504-.631.672-1.467 1.007-2.51 1.007-1.006 0-1.806-.321-2.404-.966-.595-.644-.893-1.457-.893-2.436 0-1.024.306-1.865.922-2.517.617-.652 1.445-.98 2.488-.98 1.006 0 1.814.322 2.426.966.58.626.873 1.434.873 2.421zm-1.58.047c0-.61-.136-1.133-.408-1.57-.32-.527-.775-.79-1.366-.79-.612 0-1.077.263-1.397.79-.273.437-.408.968-.408 1.597 0 .61.137 1.133.409 1.57.33.527.789.791 1.382.791.58 0 1.037-.268 1.366-.805.281-.445.422-.973.422-1.583zm12.997-3.299l-2.144 6.613H86.58l-.888-2.871a20.89 20.89 0 01-.55-2.137h-.028a15.206 15.206 0 01-.551 2.137l-.943 2.871h-1.41l-2.016-6.613h1.565l.775 3.144c.187.743.341 1.452.465 2.123h.027c.114-.553.301-1.257.566-2.109l.972-3.157h1.24l.932 3.09c.226.753.409 1.478.55 2.177h.042c.103-.68.258-1.406.465-2.177l.831-3.09h1.495v-.001zm7.894 6.613h-1.523v-3.788c0-1.167-.459-1.75-1.38-1.75-.452 0-.817.159-1.1.48-.28.322-.423.7-.423 1.134v3.923h-1.523v-4.723c0-.58-.019-1.21-.055-1.892h1.338l.071 1.034h.043c.177-.322.441-.587.789-.799a2.643 2.643 0 011.38-.371c.64 0 1.171.199 1.594.599.526.49.79 1.22.79 2.191v3.962zm4.2 0h-1.521V8.138h1.521v9.648zm8.967-3.361c0 1.017-.301 1.85-.903 2.504-.631.672-1.468 1.007-2.51 1.007-1.007 0-1.807-.321-2.403-.966-.596-.644-.894-1.457-.894-2.436 0-1.024.307-1.865.923-2.517.616-.652 1.444-.98 2.486-.98 1.007 0 1.814.322 2.427.966.581.626.874 1.434.874 2.421zm-1.582.047c0-.61-.136-1.133-.408-1.57-.318-.527-.774-.79-1.364-.79-.614 0-1.079.263-1.397.79-.273.437-.408.968-.408 1.597 0 .61.136 1.133.408 1.57.33.527.789.791 1.382.791.581 0 1.036-.268 1.365-.805.283-.445.422-.973.422-1.583zm8.952 3.314h-1.368l-.113-.762h-.042c-.468.608-1.135.912-2.001.912-.647 0-1.17-.2-1.564-.599-.357-.362-.536-.812-.536-1.347 0-.808.349-1.424 1.051-1.85.7-.427 1.685-.636 2.954-.626v-.123c0-.872-.474-1.307-1.423-1.307-.675 0-1.271.165-1.786.49l-.309-.965c.636-.38 1.422-.571 2.35-.571 1.79 0 2.688.912 2.688 2.736v2.435c0 .66.033 1.187.099 1.577zm-1.581-2.273v-1.02c-1.68-.028-2.52.417-2.52 1.333 0 .345.096.603.292.776.196.172.446.258.744.258.334 0 .647-.102.932-.306a1.249 1.249 0 00.552-1.04zm10.235 2.273h-1.352l-.071-1.062h-.042c-.432.808-1.167 1.212-2.2 1.212-.826 0-1.513-.313-2.058-.938-.545-.626-.817-1.438-.817-2.436 0-1.07.295-1.937.888-2.6.574-.617 1.278-.925 2.115-.925.919 0 1.563.298 1.929.897h.029V8.139h1.525v7.867c0 .643.017 1.237.054 1.781zm-1.579-2.789v-1.102c0-.191-.014-.346-.042-.463a1.662 1.662 0 00-.55-.891 1.53 1.53 0 00-1.019-.36c-.568 0-1.013.217-1.34.653-.324.436-.488.993-.488 1.674 0 .653.155 1.184.468 1.592.33.435.774.652 1.331.652.5 0 .899-.18 1.203-.544.294-.335.437-.74.437-1.21zm14.603-.572c0 1.017-.3 1.85-.902 2.504-.631.672-1.465 1.007-2.51 1.007-1.004 0-1.805-.321-2.403-.966-.596-.644-.894-1.457-.894-2.436 0-1.024.307-1.865.923-2.517.616-.652 1.444-.98 2.489-.98 1.004 0 1.814.322 2.424.966.581.626.873 1.434.873 2.421zm-1.578.047c0-.61-.136-1.133-.408-1.57-.321-.527-.775-.79-1.368-.79-.61 0-1.075.263-1.396.79-.273.437-.408.968-.408 1.597 0 .61.136 1.133.408 1.57.33.527.789.791 1.382.791.581 0 1.039-.268 1.367-.805.281-.445.423-.973.423-1.583zm9.767 3.314h-1.521v-3.788c0-1.167-.46-1.75-1.382-1.75-.452 0-.817.159-1.099.48-.282.322-.423.7-.423 1.134v3.923h-1.524v-4.723c0-.58-.018-1.21-.054-1.892h1.337l.071 1.034h.042c.179-.322.444-.587.789-.799a2.651 2.651 0 011.382-.371c.638 0 1.17.199 1.593.599.528.49.789 1.22.789 2.191v3.962zm10.249-5.512h-1.677v3.213c0 .816.298 1.225.888 1.225.274 0 .5-.023.679-.07l.039 1.116c-.301.11-.696.164-1.183.164-.601 0-1.069-.176-1.408-.53-.34-.354-.508-.948-.508-1.783v-3.335h-1.002v-1.101h1.002V9.96l1.492-.435v1.645h1.677v1.103h.001zm8.063 5.512h-1.525v-3.76c0-1.185-.459-1.779-1.379-1.779-.706 0-1.189.344-1.453 1.032a1.79 1.79 0 00-.071.528v3.978h-1.522V8.138h1.522v3.986h.029c.479-.725 1.167-1.087 2.058-1.087.63 0 1.152.199 1.566.599.516.498.775 1.239.775 2.218v3.932zm8.316-3.62c0 .264-.02.486-.056.667h-4.568c.021.653.239 1.152.662 1.497.386.308.885.463 1.495.463.676 0 1.292-.104 1.847-.313l.238 1.021c-.649.272-1.414.408-2.299.408-1.061 0-1.896-.301-2.501-.904-.607-.604-.908-1.413-.908-2.429 0-.998.281-1.828.846-2.49.59-.707 1.388-1.06 2.395-1.06.985 0 1.733.353 2.239 1.06.408.56.61 1.255.61 2.08zm-1.453-.38c.012-.436-.088-.812-.295-1.13-.264-.408-.667-.612-1.212-.612-.497 0-.902.199-1.212.599a2.185 2.185 0 00-.452 1.143h3.171z" fill="#fff"/></svg>