<svg width="182" height="48" fill="none" xmlns="http://www.w3.org/2000/svg"><g clip-path="url(#clip0_1_8499)" fill="#181818"><path d="M98.91 47.586l.049-8.572v-3.089c-.12.094-.234.196-.34.307-3.554 4.821-12.709 4.73-15.38-3.273-1.45-4.342-1.206-8.654 1.538-12.459 3.31-4.596 9.904-4.824 13.634-.602.129.154.262.291.526.586V17.45h2.925v30.135l-2.952.001zm.044-19.391c.021-1.738-.255-3.414-1.095-4.937-1.392-2.528-3.575-3.562-6.301-3.384-2.62.172-4.415 1.62-5.33 4.147-1.016 2.802-1.033 5.66.026 8.447.972 2.546 2.885 3.9 5.506 4.04 2.518.134 4.576-.852 5.938-3.118.955-1.581 1.273-3.35 1.257-5.195zM58.44 33.89l2.566-1.939c.093.102.18.208.263.319 2.42 3.763 7.173 4.77 10.762 3.677 2.679-.814 4.102-2.937 3.885-5.724-.106-1.356-.706-2.479-1.867-3.01-1.719-.79-3.533-1.358-5.314-2.01-1.848-.678-3.775-1.182-5.538-2.044-5.366-2.626-4.81-10.04-.399-12.818 4.923-3.102 12.333-1.685 15.74 3.205l-2.426 1.97c-1.216-1.591-2.688-2.714-4.516-3.249-2.3-.672-4.576-.653-6.739.53-1.861 1.018-2.69 3.049-2.124 5.036.273.956.831 1.731 1.674 2.145a37.792 37.792 0 003.827 1.557c1.973.701 3.995 1.262 5.942 2.03.96.395 1.85.955 2.632 1.656 3.415 3.02 3.114 8.897-.561 11.95-1.586 1.318-3.43 1.992-5.42 2.203-4.39.452-8.303-.613-11.365-4.121-.363-.41-.663-.876-1.021-1.362zm123.297-5.185h-15.81c-.415 2.581 1.292 5.866 3.619 7.047a7.517 7.517 0 005.079.576 7.738 7.738 0 004.325-2.82l2.067 1.892a9.68 9.68 0 01-3.33 2.867c-4.213 2.233-9.578 1.286-12.432-2.217-1.82-2.236-2.485-4.895-2.481-7.754 0-3.567.93-6.803 3.676-9.154 2.915-2.496 6.268-2.852 9.722-1.5 3.313 1.297 5.078 3.995 5.548 7.58.14 1.119.017 2.27.017 3.483zm-15.766-2.727h12.765c-.109-3.573-2.634-6.092-6.115-6.155-3.689-.064-6.4 2.421-6.65 6.155zm-35.008-3.829l-1.495-2.353a12.02 12.02 0 015.757-2.652c2.037-.362 4.068-.353 6.032.423 2.29.902 3.68 2.872 3.691 5.38.032 5.182.011 10.363.011 15.546 0 .123-.028.247-.054.472-.814 0-1.624.028-2.42-.026-.147-.01-.376-.337-.398-.538a14.546 14.546 0 01-.019-1.576c-.114 0-.176-.019-.197 0-2.717 2.885-5.984 3.19-9.467 2.027-2.496-.834-3.897-3.064-3.929-5.871-.033-2.758 1.18-4.822 3.719-5.721 1.751-.613 3.634-.833 5.444-1.284a20.245 20.245 0 003.085-.973c.909-.387 1.356-1.2 1.328-2.266-.028-1.064-.537-1.788-1.409-2.247-1.466-.766-3.038-.78-4.616-.57-1.845.254-3.553.914-5.063 2.229zm11.024 5.157c-2.057 1.097-4.266 1.32-6.423 1.773-.767.169-1.522.396-2.257.68a2.551 2.551 0 00-.97.612 2.664 2.664 0 00-.621.987c-.738 2.018.211 4.137 2.179 4.82.491.16.997.267 1.51.319 3.296.412 6.108-1.587 6.549-4.808.192-1.394.033-2.84.033-4.383zm-17.964 11.616h-2.805v-2.926c-.304.319-.463.476-.615.645a8.538 8.538 0 01-4.307 2.59 8.303 8.303 0 01-4.968-.321c-2.484-.979-3.676-3.026-4.118-5.621a14.1 14.1 0 01-.161-2.286c-.014-4.212 0-8.427 0-12.635v-.896h2.908v.795c0 4.008 0 8.015.008 12.024-.006.764.046 1.527.156 2.282.468 2.951 2.27 4.166 5.039 3.92 3.621-.32 6.017-3.19 6.039-7.116.021-3.677 0-7.354 0-11.03v-.886h2.832l-.008 21.461zm26.165.046V17.476h2.828v2.392l.283.207c.095-.198.148-.438.295-.584 2.085-2.133 4.513-3.03 7.399-2.113 1.048.334 1.045.4.696 1.439-.192.571-.382 1.143-.518 1.55-1.161-.105-2.242-.387-3.277-.26-2.453.306-4.19 2.298-4.645 5.13-.13.883-.193 1.774-.187 2.667a763.56 763.56 0 000 10.265c0 .626-.157.868-.784.818-.678-.062-1.364-.019-2.09-.019z"/><path fill-rule="evenodd" clip-rule="evenodd" d="M18.403.414c-9.942 0-18 8.059-18 18v11.172c0 9.941 8.058 18 18 18h9.5c9.94 0 18-8.059 18-18V18.414c0-9.941-8.06-18-18-18h-9.5zM15.456 8.69a7 7 0 00-7 7v16.62a7 7 0 007 7h15.393a7 7 0 007-7V15.69a7 7 0 00-7-7H15.456z"/><rect x="16.911" y="17.379" width="12.482" height="13.241" rx="4"/></g><defs><clipPath id="clip0_1_8499"><path fill="#fff" d="M0 0h182v48H0z"/></clipPath></defs></svg>