<svg width="277" height="40" fill="none" xmlns="http://www.w3.org/2000/svg"><g clip-path="url(#clip0_1_8511)" fill="#181818"><path d="M32.5 39.986l-2.242-2.444c1.058-.98 2.177-1.953 3.23-3.013 3.43-3.45 6.856-6.902 10.241-10.411 2.044-2.113 2.291-5.011.735-7.247-2.136-3.068-6.106-3.375-8.824-.644a2903.15 2903.15 0 00-12.653 12.798l-2.745 2.794-2.482-2.707c3.423-3.367 6.928-6.797 10.413-10.246 1.745-1.726 3.434-3.51 5.187-5.228 3.69-3.622 9.251-3.66 12.818-.12 3.568 3.54 3.739 9.203.126 12.898-4.493 4.581-9.14 9-13.804 13.57zM18.187 2.603c-4.413 4.383-8.914 8.745-13.333 13.213-2.881 2.918-2.16 7.37 1.377 9.228 2.098 1.096 4.814.594 6.716-1.323 4.93-4.976 9.85-9.96 14.759-14.954.157-.162.323-.312.544-.52l2.514 2.74c-3.85 3.772-7.845 7.67-11.828 11.6-1.298 1.273-2.536 2.61-3.853 3.865-3.766 3.58-9.287 3.542-12.822-.06a9.252 9.252 0 01-2.615-6.487 9.251 9.251 0 012.664-6.467C6.735 8.926 11.257 4.512 15.88-.088l2.307 2.69zM96.11 27.729l2.935 4.008c-2.247.173-4.049.6-5.06-1.482-.37-.762-.901-.496-1.481-.274-4.435 1.597-9.252.063-11.638-3.688-3.222-5.055-1.673-12.627 3.197-15.293 3.453-1.888 6.996-1.83 10.34.216 3.442 2.11 4.542 5.516 4.493 9.379a10.605 10.605 0 01-2.787 7.134zm-1.595-3.715c.95-2.33.994-5.034.138-7.4-.906-2.493-2.835-3.778-5.4-3.885-2.45-.102-4.444.937-5.549 3.224-1.442 2.992-1.382 6.006.335 8.888 1.175 1.973 3.01 2.828 5.27 2.74 2.332-.085 4.128-1.154 5.086-3.288a7.28 7.28 0 00.12-.28zm67.9 5.86c-1.048 0-1.956.077-2.843-.033a2.011 2.011 0 01-1.17-.723c-1.508-1.88-3.045-3.743-4.398-5.732-.846-1.244-1.828-1.43-3.205-1.08v7.464h-3.328V9.97c3.401.194 6.838.14 10.185.668 2.343.367 3.616 2.466 3.728 4.792.136 2.797-.906 4.693-3.192 5.797-.441.214-.89.406-1.458.666 1.039 1.315 2.097 2.548 3.036 3.871.909 1.283 2.34 2.247 2.645 4.11zm-11.581-10.603c1.742-.129 3.323-.15 4.871-.389 1.472-.227 2.305-1.331 2.343-2.74.038-1.408-.751-2.567-2.253-2.794-1.619-.244-3.282-.186-4.961-.274v6.197zm-7.662 10.606c-.993.042-1.988.029-2.98-.039-.323-.035-.729-.454-.865-.791a48.351 48.351 0 01-1.377-3.855c-.231-.729-.62-.978-1.385-.96-2.177.05-4.353.042-6.53 0-.738 0-1.162.163-1.388.938-.343 1.178-.906 2.293-1.211 3.48-.247.972-.694 1.37-1.687 1.24-.691-.04-1.384-.04-2.076 0 .166-.77.221-1.4.433-1.97 2.076-5.586 4.196-11.158 6.258-16.75.272-.764.642-1.096 1.469-1.03a13.87 13.87 0 002.852 0c1.154-.15 1.559.41 1.905 1.389 2.03 5.6 4.122 11.178 6.179 16.77.162.518.296 1.045.403 1.578zm-6.604-8.655c-.887-2.595-1.692-4.997-2.541-7.397-.101-.274-.447-.466-.675-.696-.229.233-.544.424-.67.704a20.081 20.081 0 00-.707 1.918c-.618 1.78-1.227 3.561-1.883 5.48l6.476-.01zm102.248 8.652c-1.132 0-2.079.058-3.01-.036-.272-.027-.623-.435-.745-.745a44.695 44.695 0 01-1.331-3.72c-.242-.806-.59-1.176-1.499-1.146a112.83 112.83 0 01-6.53 0c-.757-.019-1.127.2-1.361.951-.482 1.556-1.088 3.077-1.633 4.658h-3.303c.06-.539.164-1.071.31-1.592 2.095-5.62 4.237-11.233 6.297-16.852.356-.981.816-1.37 1.845-1.26 1.295.123 2.895-.335 3.809.273.86.581 1.02 2.233 1.464 3.425 1.761 4.723 3.513 9.45 5.254 14.18.181.613.325 1.235.433 1.864zm-13.02-8.715h6.47c-.892-2.597-1.717-5.033-2.579-7.455-.082-.233-.422-.531-.623-.518a.927.927 0 00-.61.548c-.89 2.428-1.744 4.858-2.658 7.425zM59.968 24.485l3.11-.359c1.043 2.707 3.146 3.836 6.022 3.014 1.445-.414 2.158-1.417 2.177-2.792 0-1.438-.892-2.107-2.103-2.496-1.377-.444-2.776-.822-4.136-1.312-3.225-1.156-4.781-3.206-4.52-5.858.272-2.863 2.199-4.688 5.537-5.271 3.195-.548 6.155.548 7.516 2.907.392.68.56 1.487.879 2.361l-3.151.299c-1.45-2.403-3.045-3.131-5.252-2.425-1.04.335-1.711 1.006-1.834 2.13a2.063 2.063 0 001.374 2.279c1.592.646 3.23 1.172 4.841 1.77 3.35 1.24 4.482 2.679 4.414 5.578-.068 2.808-1.677 4.726-4.83 5.654a8.78 8.78 0 01-7.429-1.016c-1.608-1.008-2.342-2.57-2.614-4.463zm138.585-9.795l-3.2.274c-1.382-2.38-3.08-3.232-5.241-2.348-.748.307-1.458 1.198-1.757 1.987-.379.992.272 1.874 1.224 2.31 1.026.462 2.103.821 3.162 1.207.816.296 1.632.549 2.432.863 2.036.842 3.614 2.069 3.747 4.537.139 2.644-.906 4.59-3.221 5.842-3.581 1.917-8.708.923-10.67-2.099a4.96 4.96 0 01-.514-.959c-.198-.548-.335-1.12-.544-1.803l3.197-.38c1.309 2.819 3.668 3.923 6.185 2.978 1.282-.483 1.992-1.39 1.986-2.795 0-1.356-.843-2.044-2.013-2.425-1.361-.446-2.77-.822-4.133-1.32-3.323-1.18-4.898-3.247-4.626-5.92.324-2.916 2.329-4.858 5.714-5.236 2.857-.318 5.578.076 7.279 2.835.454.699.636 1.546.993 2.452zm-94-4.961h3.289v3.734c.041 3.241 0 6.488.169 9.718.158 2.846 1.82 4.298 4.468 4.238 2.449-.055 4.133-1.72 4.204-4.43.103-3.836.046-7.671.057-11.507V9.756h3.282c.065.09.157.165.157.236-.019 4.518.164 9.04-.125 13.548-.326 5.085-3.477 6.887-8.128 6.786-4.87-.104-7.401-2.789-7.442-7.671-.032-3.926 0-7.855 0-11.781-.005-.367.039-.72.069-1.145zM166.741 29.8V10.195h12.656v2.934h-9.227v5.153h8.536v3.014h-8.563v5.545h9.36v2.964l-12.762-.005zm110.265.038h-12.689V9.945h12.642v2.926h-9.376v5.206h8.707v3.013h-8.686v5.669h9.407l-.005 3.08zm-69.416-7.542v7.512h-3.423V10.395c3.357 0 6.704-.236 10.002.07 2.862.275 4.473 2.658 4.514 5.754.038 2.918-1.632 5.09-4.479 5.68-1.063.206-2.14.334-3.221.38-1.072.066-2.153.017-3.393.017zm.111-9.107v6.197c1.693-.076 3.279-.06 4.841-.246 1.706-.203 2.631-1.337 2.631-2.929 0-1.592-1.02-2.85-2.721-2.992-1.565-.131-3.14-.03-4.751-.03zm51.601 2.049c-.861.246-1.736.438-2.62.576a1.33 1.33 0 01-1.034-.548c-1.249-1.918-3.042-2.74-5.219-2.576-2.348.19-4.081 1.439-4.968 3.69-1.056 2.68-1.045 5.36.315 7.932 1.905 3.581 7.075 4.167 9.524 1.006.767-.995 1.404-1.35 2.544-.932a10.43 10.43 0 001.575.31c-.919 3.655-5.365 6.145-9.814 5.542-5.249-.71-8.604-4.819-8.514-10.438.089-5.62 3.706-9.66 9.221-10.099 3.937-.304 8.087 1.781 8.99 5.537z"/><path d="M37.006 4.189l-2.414 2.258c-.22-.203-.52-.46-.8-.737-2.789-2.757-5.92-2.74-8.707.074-4.657 4.726-9.3 9.465-13.929 14.216-.353.428-.67.887-.944 1.37l-2.98-2.902c3.407-3.287 6.754-6.476 10.068-9.71 1.818-1.777 3.57-3.624 5.355-5.435 4.42-4.487 10.272-4.178 14.35.866zM11.55 35.899c.817-.822 1.576-1.576 2.37-2.37.594.548 1.114 1.134 1.71 1.608 2.269 1.814 5.395 1.553 7.618-.696 4.735-4.784 9.431-9.605 14.15-14.416.348-.356.664-.745 1.12-1.26l2.49 3.013c-3.08 2.984-6.345 6.126-9.61 9.307-1.785 1.75-3.516 3.562-5.257 5.35-4.588 4.73-10.198 4.573-14.59-.536z"/></g><defs><clipPath id="clip0_1_8511"><path fill="#fff" d="M0 0h277v40H0z"/></clipPath></defs></svg>