<svg width="126" height="60" fill="none" xmlns="http://www.w3.org/2000/svg"><g clip-path="url(#clip0_1_8465)" fill="#181818"><path d="M21.54 60c-.53-.084-1.064-.144-1.587-.258-2.39-.523-4.098-1.932-4.992-4.207-1.315-3.35-1.405-6.791-.237-10.194 1.035-3.009 3.549-4.759 6.7-4.791.968-.024 1.936.069 2.882.276 2.6.612 4.278 2.32 5.068 4.844.96 3.068.966 6.183-.075 9.232-1.024 3-3.133 4.731-6.324 5.009-.122.02-.242.05-.359.088L21.54 60zm-2.44-9.917c.183 1.398.283 2.624.52 3.823.173.872.722 1.53 1.64 1.764 1.411.359 2.66-.394 3.075-1.91.415-1.54.54-3.146.366-4.733a13.389 13.389 0 00-.583-2.737 2.152 2.152 0 00-.654-1.016 2.126 2.126 0 00-1.095-.5c-1.263-.206-2.245.336-2.626 1.688-.342 1.22-.454 2.506-.643 3.621zm105.754 9.374c-1.815.01-3.63.025-5.446.031-1.513.006-3.016 0-4.559 0v-18.41c.117-.023.236-.039.355-.046h9.226c.142.009.284.026.424.052v3.914h-5.05v3.376h4.277v3.818h-4.282v3.348h5.055v3.917zM110.065 60c-.743-.123-1.497-.196-2.223-.379a8.966 8.966 0 01-4.573-2.817 9.084 9.084 0 01-2.165-4.94c-.229-1.934-.204-3.855.58-5.663 1.548-3.554 4.322-5.417 8.142-5.633 1.171-.065 2.357.109 3.566.18v4.496l-1.591-.276c-3.466-.606-5.294 1.992-5.5 4.512-.083 1.036-.015 2.069.342 3.049.764 2.116 2.736 3.285 5.009 2.96.567-.082 1.128-.205 1.772-.327v4.393l-2.377.435-.982.01zM9.557 60c-.636-.102-1.278-.175-1.907-.31-3.83-.827-6.64-4.012-7.059-7.95-.15-1.415-.157-2.82.175-4.21.965-4.03 4.395-6.843 8.58-6.964 1.174-.034 2.353.12 3.545.19v4.488c-.534-.091-1.056-.179-1.577-.27-3.476-.615-5.342 1.986-5.524 4.604-.077 1.094.019 2.178.445 3.198.816 1.96 2.73 3.03 4.903 2.722.568-.08 1.13-.203 1.736-.314v4.391l-2.345.43L9.557 60zm58.749-27.007l2.566 6.37c-.361-.193-.589-.312-.812-.435-3.35-1.876-6.685-3.761-10.042-5.617a2.63 2.63 0 00-1.215-.307c-8.185-.017-16.37-.021-24.557-.013-3.105 0-5.527-1.98-6.135-5.037a6.654 6.654 0 01-.079-1.297c-.005-6.72.042-13.443-.022-20.163C27.978 3.14 30.326.782 32.8.314a7.86 7.86 0 011.443-.158c17.72-.008 35.44-.008 53.16 0 3.069 0 5.478 1.918 6.135 4.918.12.622.175 1.255.162 1.888.011 6.413.013 12.826.005 19.239 0 1.586-.264 3.096-1.278 4.39-1.228 1.565-2.839 2.39-4.8 2.396-6.17.027-12.341.01-18.512.01l-.81-.004zm-23.32-15.232c.05.062.08.083.091.11.03.084.053.172.08.258 1.004 3.266 2.25 6.424 4.321 9.17.615.815 1.291 1.627 2.085 2.255 1.418 1.118 3.026.422 3.35-1.36a5.04 5.04 0 00.031-.87c0-1.287-.086-2.581.028-3.858.216-2.407.484-4.816.854-7.204.493-3.18 1.09-6.34 2.544-9.262.422-.85.316-1.709-.299-2.437-.648-.776-1.497-1.09-2.512-.85-.756.174-1.198.687-1.53 1.342-1.58 3.117-2.274 6.494-2.836 9.91-.236 1.43-.403 2.873-.614 4.407-.09-.223-.154-.352-.192-.487-.608-2.134-1.228-4.266-1.812-6.407-.26-.955-.367-1.96-.688-2.891-.54-1.558-2.292-1.883-3.42-.675a4.747 4.747 0 00-.701 1.022c-1.132 2.141-2.245 4.293-3.365 6.44-.783 1.5-1.568 3.001-2.377 4.544a2.191 2.191 0 01-.115-.308c-.838-4.469-1.674-8.938-2.506-13.408-.153-.822-.223-1.7-1.061-2.142-.935-.49-1.9-.418-2.756.183-.801.562-1.024 1.425-.87 2.362.44 2.69.827 5.39 1.382 8.058.75 3.603 1.6 7.187 2.486 10.758.244.98.69 1.943 1.195 2.83.531.935 1.404 1.08 2.251.427.575-.446 1.151-.98 1.513-1.595 1.08-1.832 2.08-3.716 3.072-5.602.819-1.549 1.575-3.129 2.37-4.72zm45.479-2.463c-.034-1.331-.196-2.669-.659-3.96-1.064-2.977-3.442-4.746-6.404-4.764-2.49-.015-4.371 1.141-5.804 3.101-2.352 3.218-3.171 6.846-2.63 10.772.261 1.899.984 3.636 2.428 4.964 2.775 2.554 7.22 2.227 9.734-.735 2.276-2.68 3.257-5.854 3.335-9.378zm-25.413 11.83c.34-.025.682-.028 1.02-.077 2.13-.314 3.685-1.524 4.882-3.255a14.36 14.36 0 002.471-6.401c.279-2.148.185-4.247-.578-6.294-1.903-5.105-8.176-5.955-11.33-2.329-3.488 4.01-4.485 8.664-2.85 13.746.957 2.973 3.395 4.589 6.385 4.61zM36.357 47.12l-1.232 12.337H30.44l2.33-18.391h6.287L41.13 51.12c.318-1.577.599-3.072.922-4.557.374-1.714.778-3.42 1.188-5.125.038-.157.245-.389.375-.39 2.013-.025 4.027-.017 6.113-.017.83 6.145 1.65 12.271 2.48 18.458h-3.44c-1.478 0-1.475 0-1.62-1.477-.371-3.62-.745-7.239-1.189-10.882-.044.136-.097.269-.13.407-.931 3.83-1.857 7.661-2.779 11.493-.084.352-.216.478-.57.467a36.093 36.093 0 00-2.377 0c-.392.014-.556-.103-.649-.501-.95-3.844-1.926-7.681-2.895-11.52-.03-.118-.073-.235-.108-.352l-.094-.004zm22.413-.025c-.41 4.102-.818 8.204-1.231 12.349H52.86c.155-1.245.304-2.477.46-3.703.527-4.167 1.055-8.334 1.584-12.5.075-.593.16-1.184.216-1.778.03-.304.128-.442.463-.435 1.816.014 3.634.023 5.45-.006.467-.008.47.29.53.576.622 3.029 1.243 6.058 1.86 9.087a.328.328 0 00.167.237c.194-.998.368-2 .586-2.993.473-2.154.972-4.301 1.447-6.455.078-.355.234-.452.582-.447 1.818.015 3.634.015 5.45 0 .36 0 .483.102.532.475.766 5.795 1.543 11.588 2.33 17.379.024.176.026.355.043.573h-4.87c-.431-4.107-.86-8.219-1.288-12.335l-.09-.008-2.972 12.38c-1.054 0-2.077.015-3.098-.02-.123 0-.302-.26-.347-.43-.616-2.379-1.213-4.763-1.815-7.146l-1.201-4.784-.109-.016z"/><path d="M92.448 59.458h-4.931V41.095a.597.597 0 01.157-.053c2.532.047 5.067.049 7.597.166 1.154.054 2.237.506 3.215 1.157a5.02 5.02 0 01-.284 8.602c-.108.062-.216.12-.4.218 1.297 2.741 2.593 5.47 3.924 8.276-.241.013-.41.03-.579.03-1.367 0-2.733-.016-4.106.01-.398.008-.6-.117-.771-.483-1.149-2.454-2.323-4.9-3.49-7.339a1.12 1.12 0 00-.337-.45l.005 8.229zm-.014-10.397c.747-.16 1.45-.257 2.12-.464.67-.207 1.08-.716 1.12-1.439.038-.762-.085-1.496-.766-1.974-.736-.517-1.59-.552-2.474-.581v4.458zm-7.084-.711v3.469c0 .109-.011.211-.02.37h-4.31v3.383h4.988c.026.153.045.307.056.462v3.044c0 .251 0 .46-.352.46-3.185-.015-6.368-.017-9.551-.024-.015 0-.03-.017-.093-.054V41.11h9.912v3.88h-4.974v3.36h4.345zm.418-33.088c-.038 2.237-.433 3.987-1.58 5.466a5.567 5.567 0 01-1.494 1.293c-.905.545-1.77.296-2.313-.615-.772-1.293-1.024-2.7-.875-4.21a8.8 8.8 0 011.91-4.69c.258-.325.561-.609.9-.844.964-.666 1.981-.435 2.586.57.628 1.048.9 2.195.866 3.03zm-16.862.397c-.07 1.914-.472 3.73-1.724 5.24a5.238 5.238 0 01-1.31 1.107c-.915.553-1.8.314-2.369-.6-.815-1.306-1.016-2.768-.872-4.272a8.47 8.47 0 011.82-4.505 4.685 4.685 0 011.048-.998c.94-.625 1.92-.4 2.508.563a6.175 6.175 0 01.899 3.465z"/></g><defs><clipPath id="clip0_1_8465"><path fill="#fff" d="M0 0h126v60H0z"/></clipPath></defs></svg>