<svg width="184" height="46" fill="none" xmlns="http://www.w3.org/2000/svg"><g clip-path="url(#clip0_1_8527)"><path d="M75.9 30.527c-2.927 3.555-7.11 5.855-11.71 5.855-7.945 0-14.217-5.646-14.217-12.964 0-3.554 1.463-6.9 4.181-9.409 2.51-2.51 6.064-3.764 9.619-3.555 4.6 0 8.99 2.091 11.709 5.855l-5.228 3.764c-1.463-2.3-3.763-3.764-6.481-3.764-3.973 0-7.319 3.345-7.319 7.318.21 4.182 3.555 7.318 7.528 7.318 2.718 0 5.227-1.254 6.69-3.554l5.228 3.136zM85.31 0h-6.483v35.755h6.482V0zm17.354 30.736c4.182 0 7.736-3.345 7.945-7.527-.209-4.182-3.763-7.527-7.945-7.527s-7.737 3.345-7.946 7.527c.21 4.182 3.555 7.527 7.946 7.527zm0-20.49c3.554-.21 7.109 1.045 9.827 3.554 2.718 2.51 4.182 5.855 4.391 9.41-.209 3.554-1.673 7.108-4.391 9.408-2.718 2.51-6.273 3.764-9.827 3.555-7.946 0-14.218-5.646-14.218-12.964 0-7.318 6.272-12.963 14.218-12.963zm12.963.418h7.737l6.272 13.382 6.691-13.382h7.109l-13.8 26.554-14.009-26.554zm46.418 8.991c-1.045-2.51-3.345-3.973-6.063-3.973-2.718 0-5.227 1.463-6.482 3.973h12.545zm4.182 13.172c-2.718 2.3-6.063 3.346-9.618 3.346-7.945 0-14.218-5.646-14.218-12.964 0-3.554 1.464-6.9 3.973-9.409 2.509-2.509 6.063-3.764 9.618-3.555 3.554-.209 6.9 1.255 9.409 3.764 2.509 2.51 3.764 5.855 3.554 9.41v1.672h-20.072c1.045 3.345 4.182 5.645 7.736 5.645 2.091 0 4.182-.836 5.855-2.509l3.763 4.6zm5.855-11.081c0-6.064 4.6-10.873 11.918-10.873v5.854c-1.464 0-3.136.628-4.182 1.673-1.045 1.046-1.463 2.718-1.254 4.182v13.173h-6.482v-14.01z" fill="#181818"/><path d="M20.282 11.71c0-4.183-2.51-7.737-6.273-9.41C10.245.627 5.855 1.464 2.927 4.391 0 7.318-.836 11.709.627 15.473c1.464 3.763 5.228 6.272 9.41 6.272h10.245V11.71zm2.927 0c0-4.183 2.51-7.737 6.273-9.41 3.764-1.673 8.154-.836 11.082 2.091 2.927 2.927 3.763 7.318 2.3 11.082-1.464 3.763-5.228 6.272-9.41 6.272H23.21V11.71zm0 23c0 4.181 2.51 7.736 6.273 9.408 3.764 1.673 8.154.837 11.082-2.09 2.927-2.928 3.763-7.319 2.3-11.082-1.464-3.764-5.228-6.273-9.41-6.273H23.21v10.036zm-13.173 7.317c3.973 0 7.319-3.136 7.319-7.318v-7.318h-7.319c-3.972 0-7.318 3.136-7.318 7.318 0 4.182 3.346 7.318 7.318 7.318zm10.246-7.318c0 4.182-2.51 7.736-6.273 9.41-3.764 1.672-8.154.836-11.082-2.092C0 39.1-.836 34.71.627 30.945c1.464-3.763 5.228-6.272 9.41-6.272h10.245v10.036z" fill="#444"/></g><defs><clipPath id="clip0_1_8527"><path fill="#fff" d="M0 0h184v46H0z"/></clipPath></defs></svg>