<svg width="196" height="57" fill="none" xmlns="http://www.w3.org/2000/svg"><path d="M188.741 57H7.259C3.27 57 0 53.792 0 49.875V7.125C0 3.208 3.268 0 7.26 0h181.48c3.992 0 7.26 3.208 7.26 7.125v42.75c0 3.917-3.268 7.125-7.259 7.125z" fill="#242424"/><path d="M68.843 14.598c0 1.19-.363 2.143-1.078 2.853-.822.843-1.892 1.267-3.205 1.267-1.254 0-2.324-.431-3.203-1.281-.88-.862-1.32-1.92-1.32-3.187 0-1.266.44-2.324 1.32-3.18.879-.856 1.95-1.287 3.203-1.287.625 0 1.22.126 1.788.362.566.237 1.027.557 1.361.953l-.758.751c-.583-.675-1.376-1.008-2.39-1.008a3.36 3.36 0 00-2.382.946c-.666.634-1 1.455-1 2.463s.334 1.837 1 2.47c.674.626 1.467.947 2.381.947.971 0 1.788-.32 2.432-.953.425-.419.666-.996.73-1.733H64.56v-1.03h4.218c.05.223.065.438.065.647zm6.691-3.57h-3.961v2.707h3.571v1.03h-3.571v2.707h3.962v1.05H70.45V9.979h5.084v1.049zm4.723 7.494h-1.122v-7.494h-2.43v-1.05h5.984v1.05h-2.432v7.494zm6.762 0V9.979h1.12v8.543h-1.12zm6.083 0h-1.113v-7.494H89.55v-1.05h5.991v1.05h-2.44v7.494zm13.767-1.099c-.858.864-1.922 1.295-3.19 1.295-1.276 0-2.34-.431-3.198-1.295-.856-.862-1.283-1.92-1.283-3.173 0-1.252.427-2.31 1.283-3.172.858-.864 1.922-1.295 3.198-1.295 1.261 0 2.325.431 3.183 1.302.864.87 1.29 1.92 1.29 3.165 0 1.253-.426 2.31-1.283 3.173zm-5.559-.716c.647.64 1.432.96 2.369.96.929 0 1.722-.32 2.361-.96.644-.64.971-1.46.971-2.457 0-.995-.327-1.816-.971-2.456-.639-.64-1.432-.96-2.361-.96-.937 0-1.722.32-2.369.96-.644.64-.97 1.46-.97 2.456s.326 1.817.97 2.457zm8.416 1.815V9.979h1.361l4.232 6.644h.049l-.049-1.643v-5h1.12v8.543h-1.169l-4.432-6.972h-.049l.049 1.65v5.322h-1.112zM98.922 30.997c-3.41 0-6.196 2.547-6.196 6.062 0 3.486 2.786 6.06 6.196 6.06 3.417 0 6.203-2.574 6.203-6.06 0-3.515-2.786-6.062-6.203-6.062zm0 9.735c-1.871 0-3.48-1.516-3.48-3.673 0-2.186 1.609-3.675 3.48-3.675s3.488 1.49 3.488 3.675c0 2.157-1.617 3.673-3.488 3.673zm-13.519-9.735c-3.417 0-6.195 2.547-6.195 6.062 0 3.486 2.778 6.06 6.195 6.06 3.416 0 6.196-2.574 6.196-6.06 0-3.515-2.78-6.062-6.196-6.062zm0 9.735c-1.873 0-3.488-1.516-3.488-3.673 0-2.186 1.615-3.675 3.488-3.675 1.871 0 3.481 1.49 3.481 3.675 0 2.157-1.61 3.673-3.48 3.673zm-16.086-7.877v2.576h6.266c-.183 1.439-.673 2.497-1.424 3.235-.915.89-2.34 1.879-4.842 1.879-3.857 0-6.876-3.055-6.876-6.84 0-3.785 3.02-6.84 6.876-6.84 2.085 0 3.602.8 4.722 1.836l1.85-1.815c-1.567-1.468-3.65-2.595-6.572-2.595-5.288 0-9.733 4.223-9.733 9.414 0 5.19 4.444 9.414 9.733 9.414 2.858 0 5.005-.92 6.693-2.644 1.73-1.697 2.268-4.084 2.268-6.011 0-.599-.05-1.15-.141-1.609h-8.82zm65.78 1.997c-.51-1.356-2.084-3.855-5.289-3.855-3.176 0-5.82 2.456-5.82 6.062 0 3.395 2.617 6.06 6.125 6.06 2.837 0 4.474-1.698 5.147-2.687l-2.105-1.376c-.703 1.008-1.659 1.676-3.042 1.676-1.374 0-2.359-.618-2.991-1.837l8.26-3.354-.285-.69zm-8.421 2.018c-.071-2.337 1.849-3.534 3.225-3.534 1.078 0 1.992.529 2.297 1.286l-5.522 2.248zm-6.713 5.88h2.715V24.937h-2.715V42.75zm-4.446-10.403h-.091c-.61-.709-1.773-1.35-3.247-1.35-3.092 0-5.92 2.665-5.92 6.081 0 3.397 2.828 6.04 5.92 6.04 1.474 0 2.637-.646 3.247-1.376h.091v.869c0 2.317-1.262 3.562-3.296 3.562-1.659 0-2.688-1.175-3.113-2.164l-2.361.967c.681 1.607 2.483 3.584 5.474 3.584 3.183 0 5.869-1.838 5.869-6.31V31.365h-2.573v.981zm-3.106 8.385c-1.871 0-3.437-1.538-3.437-3.654 0-2.135 1.566-3.694 3.437-3.694 1.844 0 3.298 1.559 3.298 3.694 0 2.116-1.454 3.654-3.298 3.654zm35.397-15.795h-6.494V42.75h2.708V36h3.786c3.007 0 5.956-2.135 5.956-5.532 0-3.395-2.957-5.53-5.956-5.53zm.07 8.586h-3.856v-6.108h3.856a3.12 3.12 0 013.176 3.053 3.137 3.137 0 01-3.176 3.055zm16.738-2.56c-1.956 0-3.99.848-4.827 2.727l2.403.989c.517-.989 1.468-1.31 2.473-1.31 1.405 0 2.83.83 2.851 2.291v.188c-.49-.278-1.539-.69-2.829-.69-2.588 0-5.225 1.398-5.225 4.008 0 2.387 2.12 3.924 4.503 3.924 1.822 0 2.827-.807 3.459-1.746h.092v1.377h2.616V35.89c0-3.159-2.403-4.926-5.516-4.926zm-.326 9.762c-.886 0-2.12-.431-2.12-1.51 0-1.378 1.539-1.907 2.871-1.907 1.192 0 1.751.258 2.475.599-.212 1.65-1.658 2.818-3.226 2.818zm15.369-9.372l-3.112 7.722h-.093l-3.217-7.722h-2.92l4.834 10.791-2.758 6.005h2.829l7.45-16.796h-3.013zM155.252 42.75h2.715V24.937h-2.715V42.75z" fill="#fff"/><path d="M15.15 10.743c-.427.438-.673 1.12-.673 2.004V44.26c0 .883.246 1.566.673 2.004l.105.096 17.992-17.652v-.417L15.255 10.64l-.105.103z" fill="url(#paint0_linear_1_13797)"/><path d="M39.238 34.595l-5.99-5.887v-.417l5.997-5.887.135.077 7.103 3.967c2.027 1.125 2.027 2.978 0 4.11l-7.103 3.96-.142.077z" fill="url(#paint1_linear_1_13797)"/><path d="M39.38 34.52l-6.133-6.02L15.15 46.265c.673.694 1.771.778 3.02.084l21.21-11.83" fill="url(#paint2_linear_1_13797)"/><path d="M39.38 22.481l-21.21-11.83c-1.249-.687-2.347-.603-3.02.092L33.248 28.5l6.132-6.019z" fill="url(#paint3_linear_1_13797)"/><defs><linearGradient id="paint0_linear_1_13797" x1="31.65" y1="44.589" x2="7.739" y2="20.228" gradientUnits="userSpaceOnUse"><stop stop-color="#00A0FF"/><stop offset=".007" stop-color="#00A1FF"/><stop offset=".26" stop-color="#00BEFF"/><stop offset=".512" stop-color="#00D2FF"/><stop offset=".76" stop-color="#00DFFF"/><stop offset="1" stop-color="#00E3FF"/></linearGradient><linearGradient id="paint1_linear_1_13797" x1="49.122" y1="28.498" x2="13.992" y2="28.498" gradientUnits="userSpaceOnUse"><stop stop-color="#FFE000"/><stop offset=".409" stop-color="#FFBD00"/><stop offset=".775" stop-color="orange"/><stop offset="1" stop-color="#FF9C00"/></linearGradient><linearGradient id="paint2_linear_1_13797" x1="36.045" y1="25.229" x2="3.62" y2="-7.807" gradientUnits="userSpaceOnUse"><stop stop-color="#FF3A44"/><stop offset="1" stop-color="#C31162"/></linearGradient><linearGradient id="paint3_linear_1_13797" x1="10.595" y1="56.749" x2="25.074" y2="41.997" gradientUnits="userSpaceOnUse"><stop stop-color="#32A071"/><stop offset=".069" stop-color="#2DA771"/><stop offset=".476" stop-color="#15CF74"/><stop offset=".801" stop-color="#06E775"/><stop offset="1" stop-color="#00F076"/></linearGradient></defs></svg>