<svg width="157" height="53" fill="none" xmlns="http://www.w3.org/2000/svg"><path d="M60.276 40.22c-1.283 0-2.442-.27-3.478-.813a6.539 6.539 0 01-2.48-2.22 6.083 6.083 0 01-.998-3.145v-6.364c.049-1.16.382-2.195.999-3.108a6.536 6.536 0 012.516-2.183c1.036-.518 2.183-.777 3.44-.777 1.653 0 3.133.407 4.44 1.22 1.308.815 2.332 1.925 3.072 3.33.764 1.407 1.147 2.998 1.147 4.774 0 1.751-.383 3.33-1.147 4.736-.74 1.406-1.764 2.516-3.071 3.33-1.308.814-2.788 1.22-4.44 1.22zm-.814-4.476c.888 0 1.665-.197 2.33-.592a4.228 4.228 0 001.592-1.702c.394-.74.592-1.591.592-2.553 0-.938-.198-1.764-.592-2.48-.37-.74-.9-1.307-1.591-1.701-.691-.42-1.48-.63-2.368-.63-.888 0-1.678.21-2.368.63-.666.394-1.197.962-1.591 1.702-.37.715-.555 1.541-.555 2.479 0 .962.185 1.813.555 2.553a4.495 4.495 0 001.628 1.702c.69.395 1.48.592 2.368.592zM50.36 39.85V13.1h4.847v13.283l-.814 4.292.777 4.366v4.81h-4.81zm29.374.37c-1.58 0-2.985-.333-4.218-1a7.336 7.336 0 01-2.85-2.774c-.69-1.184-1.035-2.553-1.035-4.107V21.98h4.883v10.249c0 .74.124 1.381.37 1.924.247.518.617.913 1.11 1.184.494.271 1.073.407 1.74.407 1.01 0 1.8-.309 2.368-.925.567-.617.85-1.48.85-2.59v-10.25H87.8v10.36c0 1.58-.345 2.96-1.036 4.145-.666 1.184-1.615 2.109-2.849 2.775-1.208.641-2.602.962-4.18.962zm19.473 0c-1.652 0-3.132-.407-4.44-1.221-1.307-.814-2.343-1.924-3.108-3.33-.74-1.406-1.11-2.985-1.11-4.736 0-1.776.37-3.367 1.11-4.773.765-1.406 1.789-2.516 3.071-3.33 1.308-.814 2.8-1.221 4.477-1.221 1.283 0 2.43.259 3.441.777a6.252 6.252 0 012.479 2.183c.642.913.987 1.948 1.036 3.108v6.364a6.078 6.078 0 01-.999 3.145 6.534 6.534 0 01-2.479 2.22c-1.036.543-2.195.814-3.478.814zm.814-4.477c.913 0 1.702-.197 2.368-.592a4.225 4.225 0 001.591-1.702c.395-.74.592-1.591.592-2.553 0-.938-.197-1.764-.592-2.48-.37-.74-.9-1.307-1.591-1.701-.666-.42-1.443-.63-2.331-.63-.912 0-1.714.21-2.405.63a4.594 4.594 0 00-1.59 1.702c-.37.715-.556 1.541-.556 2.479 0 .962.185 1.813.555 2.553a4.495 4.495 0 001.628 1.702c.691.395 1.468.592 2.331.592zm9.102 4.107h-4.81v-4.81l.777-4.366-.814-4.292V13.1h4.847v26.75zm10.43.407a11.27 11.27 0 01-2.997-.407 11.652 11.652 0 01-2.664-1.11 8.673 8.673 0 01-2.109-1.776l2.886-2.923a5.993 5.993 0 002.146 1.554c.814.345 1.715.518 2.701.518.79 0 1.382-.111 1.776-.333.42-.222.629-.555.629-1 0-.492-.222-.875-.666-1.146-.419-.271-.974-.493-1.665-.666-.69-.197-1.418-.407-2.183-.63a13.74 13.74 0 01-2.146-.924 5.009 5.009 0 01-1.702-1.591c-.419-.69-.629-1.579-.629-2.664 0-1.135.272-2.122.814-2.96.568-.839 1.369-1.492 2.405-1.961 1.036-.469 2.257-.703 3.663-.703 1.48 0 2.812.259 3.996.777a7.332 7.332 0 012.997 2.33l-2.923 2.924c-.542-.666-1.159-1.147-1.85-1.443a5.312 5.312 0 00-2.183-.444c-.715 0-1.27.11-1.665.333-.37.222-.555.53-.555.925 0 .444.21.79.629 1.036.444.247 1.012.468 1.702.666.691.172 1.406.382 2.146.629a8.4 8.4 0 012.146.962c.691.42 1.246.974 1.665 1.665.444.69.666 1.578.666 2.664 0 1.751-.629 3.145-1.887 4.18-1.258 1.012-2.972 1.518-5.143 1.518zm16.441 0a11.26 11.26 0 01-2.997-.407 11.652 11.652 0 01-2.664-1.11 8.673 8.673 0 01-2.109-1.776l2.886-2.923a5.984 5.984 0 002.146 1.554c.814.345 1.714.518 2.701.518.789 0 1.381-.111 1.776-.333.419-.222.629-.555.629-1 0-.492-.222-.875-.666-1.146-.42-.271-.975-.493-1.665-.666-.691-.197-1.419-.407-2.183-.63a13.7 13.7 0 01-2.146-.924 5 5 0 01-1.702-1.59c-.42-.69-.629-1.579-.629-2.664 0-1.135.271-2.122.814-2.96.567-.839 1.369-1.492 2.405-1.961 1.036-.469 2.257-.703 3.663-.703 1.48 0 2.812.259 3.996.777a7.345 7.345 0 012.997 2.33l-2.923 2.924c-.543-.666-1.16-1.147-1.85-1.443a5.315 5.315 0 00-2.183-.444c-.716 0-1.271.11-1.665.333-.37.222-.555.53-.555.925 0 .444.209.79.629 1.036.444.247 1.011.468 1.702.666.69.172 1.406.382 2.146.629.764.222 1.48.543 2.146.962.69.42 1.245.974 1.665 1.665.444.69.666 1.578.666 2.664 0 1.751-.629 3.145-1.887 4.18-1.258 1.012-2.973 1.518-5.143 1.518z" fill="#fff"/><path opacity=".7" d="M25.38 26.753l-3.245.044a6.993 6.993 0 01-7.087-6.898v0a6.993 6.993 0 016.898-7.087l16.043-.217" stroke="#FFAA4C" stroke-width="8.444" stroke-linecap="round"/><path opacity=".7" d="M36.57 40.903l-16.05-.044a6.986 6.986 0 01-6.967-7.004v0a6.986 6.986 0 016.985-6.968h4.968" stroke="#2FDBBC" stroke-width="8.444" stroke-linecap="round"/><path opacity=".7" d="M36.674 40.769L26.426 28.308a2.88 2.88 0 01.138-3.815l11.352-11.925" stroke="#A64CED" stroke-width="8.444" stroke-linecap="round"/></svg>